<svg width="48" height="48" viewBox="0 0 48 48" fill="none" xmlns="http://www.w3.org/2000/svg">
<path d="M10.2695 20.9688C16.9849 20.9688 19.6055 26.9227 19.6055 31.332H2.54492C2.54496 38.7949 7.05107 41.6953 11.0977 41.6953C15.1442 41.6952 17.7197 38.7412 17.7197 38.7412L18.5938 39.5596C16.8462 41.15 14.1791 42.9678 10.5459 42.9678C5.27215 42.9677 0 38.9681 0 31.7861C0.000110383 24.6043 4.73639 20.9688 10.2695 20.9688ZM28.2969 42.6963H25.7676V8.5918C25.7676 6.72798 27.0324 6.12109 28.2969 6.12109V42.6963ZM42.875 6C46.444 6 47.9819 8.60987 47.9971 8.63574L47.2295 9.30273C46.5864 8.42456 45.2675 7.08984 43.2139 7.08984C39.503 7.08996 38.4004 10.425 38.4004 14.3936V20.9688H44.8389V22.332H38.4004V42.6963H35.9473V14.4551C35.9473 8.51535 39.2884 6.0002 42.875 6ZM21.6748 41.1943C22.0924 41.1945 22.4324 41.5306 22.4326 41.9434C22.4326 42.3563 22.0926 42.6932 21.6748 42.6934C21.2569 42.6934 20.917 42.3563 20.917 41.9434C20.9172 41.5305 21.2555 41.1943 21.6748 41.1943ZM32.123 41.1943C32.5407 41.1945 32.8807 41.5306 32.8809 41.9434C32.8809 42.3563 32.5408 42.6932 32.123 42.6934C31.7052 42.6934 31.3652 42.3563 31.3652 41.9434C31.3654 41.5305 31.7038 41.1943 32.123 41.1943ZM42.3926 41.1943C42.8102 41.1945 43.1502 41.5306 43.1504 41.9434C43.1504 42.3563 42.8103 42.6932 42.3926 42.6934C41.9747 42.6934 41.6348 42.3563 41.6348 41.9434C41.635 41.5305 41.9733 41.1943 42.3926 41.1943ZM9.99414 21.9688C6.08448 21.969 2.63586 26.0353 2.63574 30.1035H17.0752C16.7185 24.5114 13.5567 22.1196 10.3076 21.9756L9.99414 21.9688Z" fill="white"/>
</svg>
